<svg width="132" height="20" viewBox="0 0 132 20" fill="none" xmlns="http://www.w3.org/2000/svg">
<path d="M5.44 15.24C4.52 15.24 3.66667 15.0667 2.88 14.72C2.09333 14.36 1.41333 13.8867 0.84 13.3L1.84 12.14C2.30667 12.6333 2.85333 13.0333 3.48 13.34C4.12 13.6333 4.78 13.78 5.46 13.78C6.32667 13.78 7 13.5867 7.48 13.2C7.96 12.8 8.2 12.28 8.2 11.64C8.2 11.1867 8.1 10.8267 7.9 10.56C7.71333 10.2933 7.45333 10.0667 7.12 9.88C6.8 9.69333 6.43333 9.50667 6.02 9.32L4.14 8.5C3.72667 8.32667 3.31333 8.1 2.9 7.82C2.5 7.54 2.16 7.18 1.88 6.74C1.61333 6.3 1.48 5.76 1.48 5.12C1.48 4.45333 1.65333 3.86 2 3.34C2.36 2.80667 2.85333 2.39333 3.48 2.1C4.10667 1.79333 4.81333 1.64 5.6 1.64C6.38667 1.64 7.11333 1.79333 7.78 2.1C8.44667 2.39333 9.01333 2.78 9.48 3.26L8.58 4.34C8.18 3.95333 7.73333 3.65333 7.24 3.44C6.76 3.21333 6.21333 3.1 5.6 3.1C4.86667 3.1 4.27333 3.27333 3.82 3.62C3.38 3.96667 3.16 4.43333 3.16 5.02C3.16 5.43333 3.26667 5.78 3.48 6.06C3.70667 6.32667 3.98667 6.54667 4.32 6.72C4.65333 6.89333 4.99333 7.05333 5.34 7.2L7.2 8C7.70667 8.21333 8.16 8.47333 8.56 8.78C8.97333 9.07333 9.3 9.44 9.54 9.88C9.78 10.3067 9.9 10.8467 9.9 11.5C9.9 12.1933 9.72 12.8267 9.36 13.4C9 13.96 8.48667 14.4067 7.82 14.74C7.15333 15.0733 6.36 15.24 5.44 15.24ZM14.8953 15.24C13.8553 15.24 13.1286 14.94 12.7153 14.34C12.3153 13.74 12.1153 12.96 12.1153 12V6.62H10.6753V5.38L12.1953 5.28L12.3953 2.56H13.7753V5.28H16.3953V6.62H13.7753V12.02C13.7753 12.62 13.882 13.0867 14.0953 13.42C14.322 13.74 14.7153 13.9 15.2753 13.9C15.4486 13.9 15.6353 13.8733 15.8353 13.82C16.0353 13.7533 16.2153 13.6933 16.3753 13.64L16.6953 14.88C16.4286 14.9733 16.1353 15.0533 15.8153 15.12C15.5086 15.2 15.202 15.24 14.8953 15.24ZM20.4034 15.24C19.5901 15.24 18.9101 15 18.3634 14.52C17.8301 14.0267 17.5634 13.3467 17.5634 12.48C17.5634 11.4133 18.0368 10.6 18.9834 10.04C19.9434 9.46667 21.4568 9.06667 23.5234 8.84C23.5234 8.42667 23.4634 8.03333 23.3434 7.66C23.2368 7.28667 23.0368 6.98667 22.7434 6.76C22.4634 6.52 22.0568 6.4 21.5234 6.4C20.9634 6.4 20.4368 6.50667 19.9434 6.72C19.4501 6.93333 19.0101 7.17333 18.6234 7.44L17.9834 6.3C18.4368 6.00667 18.9901 5.72667 19.6434 5.46C20.3101 5.18 21.0301 5.04 21.8034 5.04C22.9901 5.04 23.8501 5.40667 24.3834 6.14C24.9168 6.86 25.1834 7.82667 25.1834 9.04V15H23.8234L23.6834 13.84H23.6234C23.1701 14.2133 22.6701 14.54 22.1234 14.82C21.5901 15.1 21.0168 15.24 20.4034 15.24ZM20.8834 13.92C21.3501 13.92 21.7901 13.8067 22.2034 13.58C22.6168 13.3533 23.0568 13.0333 23.5234 12.62V9.92C21.9101 10.12 20.7768 10.42 20.1234 10.82C19.4834 11.22 19.1634 11.7333 19.1634 12.36C19.1634 12.9067 19.3301 13.3067 19.6634 13.56C19.9968 13.8 20.4034 13.92 20.8834 13.92ZM28.2416 15V5.28H29.6016L29.7416 7.04H29.8016C30.1349 6.42667 30.5416 5.94 31.0216 5.58C31.5016 5.22 32.0149 5.04 32.5616 5.04C32.9482 5.04 33.2949 5.10667 33.6016 5.24L33.2816 6.68C33.1216 6.62667 32.9749 6.58667 32.8416 6.56C32.7082 6.53333 32.5416 6.52 32.3416 6.52C31.9282 6.52 31.4949 6.68667 31.0416 7.02C30.6016 7.35333 30.2149 7.93333 29.8816 8.76V15H28.2416ZM38.2352 15.24C37.1952 15.24 36.4685 14.94 36.0552 14.34C35.6552 13.74 35.4552 12.96 35.4552 12V6.62H34.0152V5.38L35.5352 5.28L35.7352 2.56H37.1152V5.28H39.7352V6.62H37.1152V12.02C37.1152 12.62 37.2218 13.0867 37.4352 13.42C37.6618 13.74 38.0552 13.9 38.6152 13.9C38.7885 13.9 38.9752 13.8733 39.1752 13.82C39.3752 13.7533 39.5552 13.6933 39.7152 13.64L40.0352 14.88C39.7685 14.9733 39.4752 15.0533 39.1552 15.12C38.8485 15.2 38.5418 15.24 38.2352 15.24ZM44.5395 15V3.28H40.5795V1.88H50.1795V3.28H46.2195V15H44.5395ZM52.3822 15V0.76H54.0222V4.64L53.9622 6.64C54.4289 6.2 54.9155 5.82667 55.4222 5.52C55.9422 5.2 56.5355 5.04 57.2022 5.04C58.2289 5.04 58.9755 5.36667 59.4422 6.02C59.9222 6.66 60.1622 7.6 60.1622 8.84V15H58.5222V9.06C58.5222 8.15333 58.3755 7.49333 58.0822 7.08C57.7889 6.66667 57.3222 6.46 56.6822 6.46C56.1889 6.46 55.7422 6.58667 55.3422 6.84C54.9555 7.09333 54.5155 7.46667 54.0222 7.96V15H52.3822ZM67.2011 15.24C66.3344 15.24 65.5478 15.04 64.8411 14.64C64.1344 14.2267 63.5744 13.64 63.1611 12.88C62.7478 12.12 62.5411 11.2133 62.5411 10.16C62.5411 9.09333 62.7478 8.18 63.1611 7.42C63.5878 6.66 64.1344 6.07333 64.8011 5.66C65.4678 5.24667 66.1678 5.04 66.9011 5.04C68.1411 5.04 69.0944 5.45333 69.7611 6.28C70.4411 7.10667 70.7811 8.21333 70.7811 9.6C70.7811 9.77333 70.7744 9.94667 70.7611 10.12C70.7611 10.28 70.7478 10.42 70.7211 10.54H64.1611C64.2278 11.5667 64.5478 12.3867 65.1211 13C65.7078 13.6133 66.4678 13.92 67.4011 13.92C67.8678 13.92 68.2944 13.8533 68.6811 13.72C69.0811 13.5733 69.4611 13.3867 69.8211 13.16L70.4011 14.24C69.9878 14.5067 69.5144 14.74 68.9811 14.94C68.4611 15.14 67.8678 15.24 67.2011 15.24ZM64.1411 9.36H69.3411C69.3411 8.37333 69.1278 7.62667 68.7011 7.12C68.2878 6.6 67.7011 6.34 66.9411 6.34C66.2611 6.34 65.6478 6.60667 65.1011 7.14C64.5678 7.66 64.2478 8.4 64.1411 9.36ZM73.343 15V1.88H75.003V7.38H81.103V1.88H82.783V15H81.103V8.82H75.003V15H73.343ZM86.2298 15V5.28H87.8698V15H86.2298ZM87.0698 3.28C86.7498 3.28 86.4832 3.18667 86.2698 3C86.0698 2.8 85.9698 2.53333 85.9698 2.2C85.9698 1.88 86.0698 1.62 86.2698 1.42C86.4832 1.22 86.7498 1.12 87.0698 1.12C87.3898 1.12 87.6498 1.22 87.8498 1.42C88.0632 1.62 88.1698 1.88 88.1698 2.2C88.1698 2.53333 88.0632 2.8 87.8498 3C87.6498 3.18667 87.3898 3.28 87.0698 3.28ZM93.6917 15.24C92.9984 15.24 92.3384 15.1133 91.7117 14.86C91.0851 14.5933 90.5384 14.2733 90.0717 13.9L90.8917 12.8C91.3184 13.1333 91.7584 13.4133 92.2117 13.64C92.6651 13.8533 93.1784 13.96 93.7517 13.96C94.3917 13.96 94.8717 13.8133 95.1917 13.52C95.5117 13.2133 95.6717 12.8533 95.6717 12.44C95.6717 12.1067 95.5584 11.8267 95.3317 11.6C95.1184 11.3733 94.8384 11.1867 94.4917 11.04C94.1584 10.88 93.8117 10.7333 93.4517 10.6C92.9984 10.4267 92.5517 10.2333 92.1117 10.02C91.6717 9.79333 91.3117 9.50667 91.0317 9.16C90.7517 8.8 90.6117 8.34667 90.6117 7.8C90.6117 7.01333 90.9051 6.36 91.4917 5.84C92.0917 5.30667 92.9184 5.04 93.9717 5.04C94.5717 5.04 95.1317 5.14667 95.6517 5.36C96.1717 5.57333 96.6184 5.83333 96.9917 6.14L96.1917 7.18C95.8584 6.92667 95.5117 6.72 95.1517 6.56C94.7917 6.4 94.3984 6.32 93.9717 6.32C93.3584 6.32 92.9051 6.46 92.6117 6.74C92.3317 7.02 92.1917 7.34667 92.1917 7.72C92.1917 8.02667 92.2917 8.28 92.4917 8.48C92.6917 8.66667 92.9517 8.83333 93.2717 8.98C93.5917 9.11333 93.9317 9.25333 94.2917 9.4C94.7584 9.57333 95.2184 9.77333 95.6717 10C96.1251 10.2133 96.4984 10.5067 96.7917 10.88C97.0984 11.24 97.2517 11.7267 97.2517 12.34C97.2517 12.86 97.1117 13.34 96.8317 13.78C96.5651 14.22 96.1651 14.5733 95.6317 14.84C95.1117 15.1067 94.4651 15.24 93.6917 15.24ZM102.2 15.24C101.16 15.24 100.433 14.94 100.02 14.34C99.62 13.74 99.42 12.96 99.42 12V6.62H97.98V5.38L99.5 5.28L99.7 2.56H101.08V5.28H103.7V6.62H101.08V12.02C101.08 12.62 101.187 13.0867 101.4 13.42C101.627 13.74 102.02 13.9 102.58 13.9C102.753 13.9 102.94 13.8733 103.14 13.82C103.34 13.7533 103.52 13.6933 103.68 13.64L104 14.88C103.733 14.9733 103.44 15.0533 103.12 15.12C102.813 15.2 102.507 15.24 102.2 15.24ZM109.404 15.24C108.618 15.24 107.878 15.04 107.184 14.64C106.504 14.24 105.951 13.66 105.524 12.9C105.111 12.14 104.904 11.2267 104.904 10.16C104.904 9.06667 105.111 8.14 105.524 7.38C105.951 6.62 106.504 6.04 107.184 5.64C107.878 5.24 108.618 5.04 109.404 5.04C110.204 5.04 110.944 5.24 111.624 5.64C112.304 6.04 112.851 6.62 113.264 7.38C113.691 8.14 113.904 9.06667 113.904 10.16C113.904 11.2267 113.691 12.14 113.264 12.9C112.851 13.66 112.304 14.24 111.624 14.64C110.944 15.04 110.204 15.24 109.404 15.24ZM109.404 13.88C110.244 13.88 110.918 13.54 111.424 12.86C111.944 12.1667 112.204 11.2667 112.204 10.16C112.204 9.04 111.944 8.13333 111.424 7.44C110.918 6.74667 110.244 6.4 109.404 6.4C108.578 6.4 107.904 6.74667 107.384 7.44C106.864 8.13333 106.604 9.04 106.604 10.16C106.604 11.2667 106.864 12.1667 107.384 12.86C107.904 13.54 108.578 13.88 109.404 13.88ZM116.464 15V5.28H117.824L117.964 7.04H118.024C118.358 6.42667 118.764 5.94 119.244 5.58C119.724 5.22 120.238 5.04 120.784 5.04C121.171 5.04 121.518 5.10667 121.824 5.24L121.504 6.68C121.344 6.62667 121.198 6.58667 121.064 6.56C120.931 6.53333 120.764 6.52 120.564 6.52C120.151 6.52 119.718 6.68667 119.264 7.02C118.824 7.35333 118.438 7.93333 118.104 8.76V15H116.464ZM124.066 19.18C123.852 19.18 123.646 19.16 123.446 19.12C123.259 19.08 123.086 19.0333 122.926 18.98L123.246 17.68C123.352 17.7067 123.472 17.7333 123.606 17.76C123.739 17.8 123.866 17.82 123.986 17.82C124.532 17.82 124.986 17.62 125.346 17.22C125.706 16.8333 125.986 16.34 126.186 15.74L126.406 15.02L122.506 5.28H124.206L126.186 10.66C126.332 11.0733 126.486 11.52 126.646 12C126.819 12.48 126.979 12.9467 127.126 13.4H127.206C127.352 12.96 127.492 12.5 127.626 12.02C127.759 11.54 127.892 11.0867 128.026 10.66L129.766 5.28H131.366L127.706 15.8C127.479 16.44 127.206 17.0133 126.886 17.52C126.579 18.0267 126.192 18.4267 125.726 18.72C125.272 19.0267 124.719 19.18 124.066 19.18Z" fill="white"/>
</svg>
